Coordinates
version=1
nRows=14
nColumns=24
inDegrees=yes

Units are S.I. units (second, meters, Newtons, ...)
Angles are in degrees.

endheader
time	pelvis_tilt	pelvis_list	pelvis_rotation	pelvis_tx	pelvis_ty	pelvis_tz	hip_flexion_r	hip_adduction_r	hip_rotation_r	knee_angle_r	ankle_angle_r	subtalar_angle_r	mtp_angle_r	hip_flexion_l	hip_adduction_l	hip_rotation_l	knee_angle_l	ankle_angle_l	subtalar_angle_l	mtp_angle_l	lumbar_extension	lumbar_bending	lumbar_rotation
      1.14950000	      0.68749582	      6.96424954	     -1.42215521	      0.13624697	      0.99567938	      0.28005257	     20.51910217	     -7.38871200	      0.78168536	    -70.44713883	      5.64638206	    -11.07046720	     -0.12262957	      7.92804922	     12.14933767	     -1.02325846	    -12.28199445	      4.35282296	     -6.79153970	      1.68343814	     -1.72963844	     -4.63464162	      2.82715548
      1.15366667	      0.75815472	      6.87023532	     -1.43446826	      0.14136211	      0.99652231	      0.27997625	     20.97939821	     -7.22394506	      0.91960945	    -70.09569230	      6.09230231	    -11.31354883	     -0.33560310	      7.30449221	     12.07595488	     -0.87105531	    -11.88229149	      4.40894742	     -6.81394783	      1.59710323	     -1.83351308	     -4.52439921	      2.74667178
      1.15783333	      0.77827540	      6.75629316	     -1.43986883	      0.14643720	      0.99725574	      0.27993762	     21.47773453	     -7.02291159	      1.06182465	    -69.68356641	      6.60348071	    -11.45651350	     -0.51396543	      6.76674453	     11.97207876	     -0.74908012	    -11.54408516	      4.49674677	     -6.78347857	      1.51773672	     -1.88624874	     -4.40518092	      2.68461601
      1.16200000	      0.76360700	      6.62723858	     -1.44440405	      0.15151228	      0.99791010	      0.27989847	     21.99321880	     -6.80691024	      1.19300938	    -69.20083534	      7.06011907	    -11.53295211	     -0.56239381	      6.28332749	     11.84585308	     -0.67504565	    -11.23517498	      4.57421648	     -6.73429576	      1.49286006	     -1.88127140	     -4.24413632	      2.64059661
      1.16616667	      0.83968361	      6.51223238	     -1.45426633	      0.15659198	      0.99866891	      0.27986678	     22.38320450	     -6.60859816	      1.32456726	    -68.64701915	      7.50502546	    -11.66006198	     -1.00505105	      5.66357451	     11.74696424	     -0.49830518	    -10.84590522	      4.58935427	     -6.80382252	      1.26443974	     -2.01353167	     -4.11393430	      2.52379838
      1.17033333	      0.81344804	      6.40855672	     -1.44541049	      0.16162122	      0.99918616	      0.27983442	     22.88328542	     -6.42129706	      1.45084582	    -68.06898218	      8.02306507	    -11.73313173	     -1.06141956	      5.21346533	     11.64657326	     -0.40972321	    -10.57285127	      4.72969436	     -6.72848592	      1.23374685	     -2.01383027	     -3.99937681	      2.49291870
      1.17450000	      0.82031411	      6.29450911	     -1.44063674	      0.16666517	      0.99974677	      0.27982551	     23.31523993	     -6.21996224	      1.57254968	    -67.40739362	      8.49255212	    -11.81268439	     -1.12415614	      4.71584419	     11.53507151	     -0.31656482	    -10.27353593	      4.83146872	     -6.67770267	      1.19712796	     -2.04803847	     -3.87100449	      2.43560273
      1.17866667	      0.86974781	      6.20704089	     -1.44020193	      0.17173029	      1.00030055	      0.27979490	     23.68520067	     -6.06113646	      1.68411231	    -66.69844043	      8.93164483	    -11.89103010	     -1.26566125	      4.15188550	     11.45902363	     -0.18528536	     -9.93184025	      4.92068758	     -6.67490267	      1.11268374	     -2.14096768	     -3.76689372	      2.33777467
      1.18283333	      0.85955783	      6.09703707	     -1.42449544	      0.17675855	      1.00073688	      0.27977818	     24.09628670	     -5.86813804	      1.79151881	    -65.92534799	      9.36894770	    -11.96591099	     -1.40009786	      3.67563940	     11.35306665	     -0.06316168	     -9.63454235	      5.02167742	     -6.67381779	      1.03090335	     -2.16209194	     -3.64240383	      2.25798682
      1.18700000	      0.83370700	      5.98974042	     -1.40567231	      0.18177724	      1.00110921	      0.27977130	     24.50325750	     -5.67762177	      1.89533148	    -65.09135605	      9.76715701	    -12.00028697	     -1.44849145	      3.23199149	     11.24625293	      0.02519398	     -9.36372292	      5.10929141	     -6.64808017	      0.99953456	     -2.16022158	     -3.51348532	      2.20697446
      1.19116667	      0.82158130	      5.90022772	     -1.38232963	      0.18679435	      1.00144416	      0.27975510	     24.87666988	     -5.51182513	      1.99436925	    -64.20934416	     10.16281247	    -12.06599654	     -1.50455477	      2.76640250	     11.16120229	      0.14361254	     -9.07841249	      5.20907300	     -6.64230000	      0.96350213	     -2.17809185	     -3.41532208	      2.13228734
      1.19533333	      0.81379895	      5.81199065	     -1.35679401	      0.19180460	      1.00173341	      0.27973320	     25.22428973	     -5.35045710	      2.08725002	    -63.27162945	     10.51871467	    -12.13862324	     -1.56652351	      2.29569057	     11.07830912	      0.27213755	     -8.79066617	      5.30593683	     -6.65506622	      0.92410973	     -2.20072197	     -3.31251886	      2.04716065
      1.19950000	      0.83915150	      5.73371226	     -1.33021223	      0.19683980	      1.00204113	      0.27970637	     25.51063086	     -5.20847537	      2.16430219	    -62.27758191	     10.82637251	    -12.25313693	     -1.69352137	      1.76467246	     11.01103062	      0.44649988	     -8.45615566	      5.38402595	     -6.73030674	      0.84450596	     -2.27447973	     -3.22999700	      1.91149026
      1.20366667	      0.80350287	      5.65096536	     -1.29202457	      0.20184032	      1.00221676	      0.27968834	     25.84237118	     -5.05566001	      2.24482566	    -61.22829083	     11.13326363	    -12.30793479	     -1.75784662	      1.33930591	     10.93089449	      0.56680576	     -8.19811224	      5.46474624	     -6.74488422	      0.80399865	     -2.26052949	     -3.12868436	      1.84787709
